<svg xmlns="http://www.w3.org/2000/svg" xmlns:xlink="http://www.w3.org/1999/xlink" width="7.54pc" height="7.54pc" viewBox="0 0 90.5 90.5"><defs><clipPath id="a"><path d="M-385.62,233.12a44.53,44.53,0,0,1-5.46,20.63c-7.12,13.28-19.28,21.64-26,25.66Z" fill="#fff" clip-rule="evenodd"/></clipPath><clipPath id="b"><path d="M-256.74,162.68s-6.43,15-18.36,21.61-21.22,8.51-21.22,8.51Z" fill="#fff" clip-rule="evenodd"/></clipPath><clipPath id="c"><path d="M-233,198.72a56.71,56.71,0,0,0-20.17-6.57s-6.45-.78-29.33,1.84h0Z" fill="#fff" clip-rule="evenodd"/></clipPath><clipPath id="d"><path d="M-199.49,138.3a105.45,105.45,0,0,1-35,30.6,102.8,102.8,0,0,1-21.22,8.51Z" fill="#fff" clip-rule="evenodd"/></clipPath><clipPath id="e"><path d="M-171.56,191.75c-15.06-10.48-27.84-13.58-37-14.39-13.39-1.2-33.36,1.24-33.36,1.24h0Z" fill="#fff" clip-rule="evenodd"/></clipPath></defs><title>dropcap-fig</title><path d="M-385.62,233.12a44.53,44.53,0,0,1-5.46,20.63c-7.12,13.28-19.28,21.64-26,25.66Z" fill="#fff" fill-rule="evenodd"/><g clip-path="url(#a)"><polygon points="-606.46 749.73 248.96 656.8 112.27 75.26 -743.15 168.19 -606.46 749.73" fill="#fff"/></g><path d="M-256.74,162.68s-6.43,15-18.36,21.61-21.22,8.51-21.22,8.51Z" fill="#fff" fill-rule="evenodd"/><g clip-path="url(#b)"><rect x="-544.55" y="73.1" width="574.25" height="574.25" transform="translate(-515.34 0.34) rotate(-71.18)" fill="#fff"/></g><path d="M-233,198.72a56.71,56.71,0,0,0-20.17-6.57s-6.45-.78-29.33,1.84h0Z" fill="#fff" fill-rule="evenodd"/><g clip-path="url(#c)"><rect x="-624.87" y="-255.9" width="574.25" height="574.25" transform="translate(-147.69 -249.71) rotate(-50.64)" fill="#fff"/></g><path d="M-199.49,138.3a105.45,105.45,0,0,1-35,30.6,102.8,102.8,0,0,1-21.22,8.51Z" fill="#fff" fill-rule="evenodd"/><g clip-path="url(#d)"><rect x="-503.91" y="57.71" width="574.25" height="574.25" transform="translate(-473.24 28.39) rotate(-71.18)" fill="#fff"/></g><path d="M-171.56,191.75c-15.06-10.48-27.84-13.58-37-14.39-13.39-1.2-33.36,1.24-33.36,1.24h0Z" fill="#fff" fill-rule="evenodd"/><g clip-path="url(#e)"><rect x="-584.23" y="-271.29" width="574.25" height="574.25" transform="translate(-120.92 -223.92) rotate(-50.64)" fill="#fff"/></g><path d="M90.5,45.31C90.5,71,72.1,90.5,45.19,90.5,18.05,90.5,0,71.15,0,45.31,0,19.23,17.94,0,45.19,0S90.5,19.12,90.5,45.31ZM78.35,51.45A58.67,58.67,0,0,0,69,19.12C62.66,10.5,56.64,8,48.73,8,38,8,30.33,16.28,30.33,28c0,8.85,3.89,13,5.66,15.46L26,50.86a33.85,33.85,0,0,1-5.19-17.94c0-14.51,9.44-27.73,26-27.73A35.53,35.53,0,0,1,60.65,8.14C55.46,4.37,49.79,3.3,44.13,3.3c-21,0-32.09,15.93-32.09,36,0,25.84,15.69,48,35,48C66.2,87.32,78.35,72.45,78.35,51.45Z" fill="#231f20"/></svg>