<?xml version="1.0" encoding="UTF-8"?>
<svg width="570px" height="900px" viewBox="0 0 570 900" version="1.1" xmlns="http://www.w3.org/2000/svg" xmlns:xlink="http://www.w3.org/1999/xlink">
    <!-- Generator: Sketch 43.2 (39069) - http://www.bohemiancoding.com/sketch -->
    <title>Artboard 3 Copy 3</title>
    <desc>Created with Sketch.</desc>
    <defs>
        <path d="M117.65,0.84 C102.141874,0.357275902 86.6336953,1.79825677 71.48,5.13 C33.58,13.68 0.89,35.03 0.89,35.03 L0.89,35.03 L117.65,0.84 Z" id="path-1"></path>
        <polygon id="path-3" points="0.69 532.11 866.73 545.71 884.79 13.77 18.75 0.17"></polygon>
        <path d="M31.76,0.93 C31.6390263,8.14756814 29.7652213,15.2275308 26.3,21.56 C19.18,34.84 7.02,43.2 0.3,47.22 L31.76,0.93 Z" id="path-5"></path>
        <polygon id="path-7" points="136.92 674.53 992.34 581.6 855.65 0.06 0.23 92.99"></polygon>
        <path d="M91.19,2 C73.6688781,-0.181827287 55.9320033,0.0368557294 38.47,2.65 C25.421263,4.58474931 12.6376427,8.01049113 0.37,12.86 L91.19,2 Z" id="path-9"></path>
        <polygon id="path-11" points="0.61 585.76 861.46 651.54 958.23 66.31 97.37 0.53"></polygon>
        <path d="M39.64,0.49 C39.64,0.49 33.21,15.49 21.28,22.1 C9.35,28.71 0.06,30.61 0.06,30.61 L39.64,0.49 Z" id="path-13"></path>
        <rect id="path-15" x="77.8154552" y="77.8821723" width="574.25" height="574.25"></rect>
        <path d="M50.36,7.53 C44.1069282,4.10477291 37.2640408,1.88940083 30.19,1 C30.19,1 23.74,0.22 0.86,2.84 L0.86,2.84 L50.36,7.53 Z" id="path-17"></path>
        <rect id="path-19" x="117.504867" y="117.900401" width="574.25" height="574.25"></rect>
        <path d="M56.89,0.11 C47.6450846,12.7867878 35.687855,23.2408228 21.89,30.71 C15.1550892,34.3268476 8.0377506,37.181162 0.67,39.22 L56.89,0.11 Z" id="path-21"></path>
        <rect id="path-23" x="77.4585615" y="77.4901661" width="574.25" height="574.25"></rect>
        <path d="M70.82,15.56 C55.76,5.08 42.98,1.98 33.82,1.17 C20.43,-0.03 0.46,2.41 0.46,2.41 L0.46,2.41 L70.82,15.56 Z" id="path-25"></path>
        <rect id="path-27" x="117.149198" y="117.508309" width="574.25" height="574.25"></rect>
    </defs>
    <g id="Page-1" stroke="none" stroke-width="1" fill="none" fill-rule="evenodd">
        <g id="Artboard-3-Copy-3">
            <g id="logo" transform="translate(0.274902, 0.168565)">
                <path d="M69.12,470.76 C67.1933333,468.526667 65.2966667,466.266667 63.43,463.98 C22.3101636,413.324997 -0.0914557956,350.043865 3.73034936e-14,284.8 C2.84217094e-14,127.52 127.51,0 284.8,0 C442.09,0 569.59,127.52 569.59,284.8 C569.59,442.08 442.08,569.59 284.8,569.59 C275.753333,569.59 266.81,569.17 257.97,568.33 C250.67,567.663333 243.456667,566.713333 236.33,565.48 C229.203333,564.246667 222.203333,562.766667 215.33,561.04 C212.65,560.38 209.98,559.66 207.33,558.91 C199.65,556.75 192.11,554.276667 184.71,551.49 C182.39,550.616667 180.086667,549.716667 177.8,548.79 C174.65,547.52 171.53,546.18 168.44,544.79 L168.31,544.73 C165.876667,543.643333 163.463333,542.516667 161.07,541.35 C158.13,539.93 155.22,538.46 152.34,536.94 L150.34,535.94 L150.34,535.94 C148.34,534.86 146.34,533.77 144.34,532.65 C141.4,530.976667 138.49,529.253333 135.61,527.48 C133.76,526.33 131.91,525.17 130.08,523.98 L128.89,523.2 L128.75,523.11 C127.11,522.043333 125.486667,520.953333 123.88,519.84 C123.2,519.37 122.52,518.91 121.88,518.42 C117.88,515.67 114.03,512.79 110.22,509.82 C108.8,508.73 107.4,507.62 106,506.49 C105.28,505.92 104.57,505.33 103.86,504.75 L69.12,470.76 Z" id="Shape" fill="#E27051" fill-rule="nonzero"></path>
                <path d="M408.65,328.84 C393.141874,328.357276 377.633695,329.798257 362.48,333.13 C324.58,341.68 291.89,363.03 291.89,363.03 L291.89,363.03 L408.65,328.84 Z" id="Shape" fill="#FCFBFA"></path>
                <g id="Clipped" transform="translate(291.000000, 328.000000)">
                    <mask id="mask-2" fill="white">
                        <use xlink:href="#path-1"></use>
                    </mask>
                    <g id="Shape"></g>
                    <g id="Group" mask="url(#mask-2)">
                        <g transform="translate(-328.000000, -97.000000)">
                            <polygon id="Shape" fill="#FCFBFA" fill-rule="nonzero" points="0.69 532.11 866.73 545.71 884.79 13.77 18.75 0.17"></polygon>
                            <g id="Clipped" stroke-width="1" fill="none" fill-rule="evenodd">
                                <mask id="mask-4" fill="white">
                                    <use xlink:href="#path-3"></use>
                                </mask>
                                <g id="Shape"></g>
                                <polygon id="Shape" fill="#FCFBFA" fill-rule="nonzero" mask="url(#mask-4)" points="429.8 154.94 456.8 93.95 344.75 74.93 317.75 135.92"></polygon>
                            </g>
                        </g>
                    </g>
                </g>
                <path d="M302.76,322.93 C302.639026,330.147568 300.765221,337.227531 297.3,343.56 C290.18,356.84 278.02,365.2 271.3,369.22 L302.76,322.93 Z" id="Shape" fill="#FCFBFA"></path>
                <g id="Clipped" transform="translate(271.000000, 322.000000)">
                    <mask id="mask-6" fill="white">
                        <use xlink:href="#path-5"></use>
                    </mask>
                    <g id="Shape"></g>
                    <g id="Group" mask="url(#mask-6)">
                        <g transform="translate(-326.000000, -157.000000)">
                            <polygon id="Shape" fill="#FCFBFA" fill-rule="nonzero" points="136.92 674.53 992.34 581.6 855.65 0.06 0.23 92.99"></polygon>
                            <g id="Clipped" stroke-width="1" fill="none" fill-rule="evenodd">
                                <mask id="mask-8" fill="white">
                                    <use xlink:href="#path-7"></use>
                                </mask>
                                <g id="Shape"></g>
                                <polygon id="Shape" fill="#FCFBFA" fill-rule="nonzero" mask="url(#mask-8)" points="299.32 162.95 363.97 150.29 384.7 199.19 320.05 211.86"></polygon>
                            </g>
                        </g>
                    </g>
                </g>
                <path d="M369.19,367 C351.668878,364.818173 333.932003,365.036856 316.47,367.65 C303.421263,369.584749 290.637643,373.010491 278.37,377.86 L369.19,367 Z" id="Shape" fill="#FCFBFA"></path>
                <g id="Clipped" transform="translate(278.000000, 365.000000)">
                    <mask id="mask-10" fill="white">
                        <use xlink:href="#path-9"></use>
                    </mask>
                    <g id="Shape"></g>
                    <g id="Group" mask="url(#mask-10)">
                        <g transform="translate(-372.000000, -165.000000)">
                            <polygon id="Shape" fill="#FCFBFA" fill-rule="nonzero" points="0.61 585.76 861.46 651.54 958.23 66.31 97.37 0.53"></polygon>
                            <g id="Clipped" stroke-width="1" fill="none" fill-rule="evenodd">
                                <mask id="mask-12" fill="white">
                                    <use xlink:href="#path-11"></use>
                                </mask>
                                <g id="Shape"></g>
                                <polygon id="Shape" fill="#FCFBFA" fill-rule="nonzero" mask="url(#mask-12)" points="424.5 205.84 458.57 166.4 394 140.63 359.94 180.08"></polygon>
                            </g>
                        </g>
                    </g>
                </g>
                <path d="M286.89,469 C283.78,475.45 279.4,484.9 274.62,496.55 C265.88,517.88 260.83,534.26 252.35,562.68 C251.65,565.02 250.97,567.33 250.29,569.61 C243.896667,568.943333 237.563333,567.993333 231.29,566.76 L232.9,561 C234.68,554.2 245,515.44 257.35,490.3 C260.52,483.84 264.86,476.19 272.92,471.96 C277.226627,469.737455 282.052074,468.715027 286.89,469 L286.89,469 Z" id="Shape" fill="#FCFBFA" fill-rule="nonzero"></path>
                <path d="M297.07,457 C295.67097,453.262147 295.544428,449.167102 296.71,445.35 C297.48,443.07 299.26,439.57 307.42,434.26 C314.35,429.75 320.94,427.15 329.42,424.46 C332.92,423.35 338.99,421.46 351.5,418.54 C360.93,416.31 368.56,414.71 373.61,413.7 C389.76,410.47 402.24,408.51 405.08,408.06 C452.55,400.6 526.68,388.63 526.69,388.72 C526.7,388.81 523.92,389.17 521.69,389.54 C491.69,394.41 461.69,402.54 406.14,416.76 C400.21,418.28 389.35,421.07 374.95,425.4 C366.09,428.06 358.81,430.4 353.89,432.08 C344.51,435.16 339.7,436.76 333.63,439.14 C322.37,443.56 314.41,447.54 311.63,448.94 C305.7,452 300.78,454.81 297.07,457 Z" id="Shape" fill="#FCFBFA" fill-rule="nonzero"></path>
                <path d="M431.64,252.49 C431.64,252.49 425.21,267.49 413.28,274.1 C401.35,280.71 392.06,282.61 392.06,282.61 L431.64,252.49 Z" id="Shape" fill="#FCFBFA"></path>
                <g id="Clipped" transform="translate(392.000000, 252.000000)">
                    <mask id="mask-14" fill="white">
                        <use xlink:href="#path-13"></use>
                    </mask>
                    <g id="Shape"></g>
                    <g id="Group" mask="url(#mask-14)">
                        <g transform="translate(-326.000000, -167.000000)">
                            <rect id="Rectangle-path" fill="#FCFBFA" fill-rule="nonzero" transform="translate(364.940455, 365.007172) rotate(-71.180000) translate(-364.940455, -365.007172) " x="77.8154552" y="77.8821723" width="574.25" height="574.25"></rect>
                            <g id="Clipped" stroke-width="1" fill="none" fill-rule="evenodd">
                                <mask id="mask-16" fill="white">
                                    <use xlink:href="#path-15"></use>
                                </mask>
                                <g id="Rectangle-path" transform="translate(364.940455, 365.007172) rotate(-71.180000) translate(-364.940455, -365.007172) "></g>
                                <rect id="Rectangle-path" fill="#FCFBFA" fill-rule="nonzero" mask="url(#mask-16)" transform="translate(345.842403, 182.535617) rotate(-78.180000) translate(-345.842403, -182.535617) " x="321.027403" y="160.235617" width="49.63" height="44.6"></rect>
                            </g>
                        </g>
                    </g>
                </g>
                <path d="M455.36,288.53 C449.106928,285.104773 442.264041,282.889401 435.19,282 C435.19,282 428.74,281.22 405.86,283.84 L405.86,283.84 L455.36,288.53 Z" id="Shape" fill="#FCFBFA"></path>
                <g id="Clipped" transform="translate(405.000000, 281.000000)">
                    <mask id="mask-18" fill="white">
                        <use xlink:href="#path-17"></use>
                    </mask>
                    <g id="Shape"></g>
                    <g id="Group" mask="url(#mask-18)">
                        <g transform="translate(-459.000000, -565.000000)">
                            <rect id="Rectangle-path" fill="#FCFBFA" fill-rule="nonzero" transform="translate(404.629867, 405.025401) rotate(-50.640000) translate(-404.629867, -405.025401) " x="117.504867" y="117.900401" width="574.25" height="574.25"></rect>
                            <g id="Clipped" stroke-width="1" fill="none" fill-rule="evenodd">
                                <mask id="mask-20" fill="white">
                                    <use xlink:href="#path-19"></use>
                                </mask>
                                <g id="Rectangle-path" transform="translate(404.629867, 405.025401) rotate(-50.640000) translate(-404.629867, -405.025401) "></g>
                                <rect id="Rectangle-path" fill="#FCFBFA" fill-rule="nonzero" mask="url(#mask-20)" transform="translate(484.609179, 570.157121) rotate(-43.640000) translate(-484.609179, -570.157121) " x="462.309179" y="545.342121" width="44.6" height="49.63"></rect>
                            </g>
                        </g>
                    </g>
                </g>
                <path d="M488.89,228.11 C479.645085,240.786788 467.687855,251.240823 453.89,258.71 C447.155089,262.326848 440.037751,265.181162 432.67,267.22 L488.89,228.11 Z" id="Shape" fill="#FCFBFA"></path>
                <g id="Clipped" transform="translate(432.000000, 228.000000)">
                    <mask id="mask-22" fill="white">
                        <use xlink:href="#path-21"></use>
                    </mask>
                    <g id="Shape"></g>
                    <g id="Group" mask="url(#mask-22)">
                        <g transform="translate(-325.000000, -158.000000)">
                            <rect id="Rectangle-path" fill="#FCFBFA" fill-rule="nonzero" transform="translate(364.583561, 364.615166) rotate(-71.180000) translate(-364.583561, -364.615166) " x="77.4585615" y="77.4901661" width="574.25" height="574.25"></rect>
                            <g id="Clipped" stroke-width="1" fill="none" fill-rule="evenodd">
                                <mask id="mask-24" fill="white">
                                    <use xlink:href="#path-23"></use>
                                </mask>
                                <g id="Rectangle-path" transform="translate(364.583561, 364.615166) rotate(-71.180000) translate(-364.583561, -364.615166) "></g>
                                <rect id="Rectangle-path" fill="#FCFBFA" fill-rule="nonzero" mask="url(#mask-24)" transform="translate(343.588000, 180.365100) rotate(-78.465379) translate(-343.588000, -180.365100) " x="318.768037" y="158.06064" width="49.639925" height="44.6089191"></rect>
                            </g>
                        </g>
                    </g>
                </g>
                <path d="M516.82,281.56 C501.76,271.08 488.98,267.98 479.82,267.17 C466.43,265.97 446.46,268.41 446.46,268.41 L446.46,268.41 L516.82,281.56 Z" id="Shape" fill="#FCFBFA"></path>
                <g id="Clipped" transform="translate(446.000000, 266.000000)">
                    <mask id="mask-26" fill="white">
                        <use xlink:href="#path-25"></use>
                    </mask>
                    <g id="Shape"></g>
                    <g id="Group" mask="url(#mask-26)">
                        <g transform="translate(-459.000000, -565.000000)">
                            <rect id="Rectangle-path" fill="#FCFBFA" fill-rule="nonzero" transform="translate(404.274198, 404.633309) rotate(-50.640000) translate(-404.274198, -404.633309) " x="117.149198" y="117.508309" width="574.25" height="574.25"></rect>
                            <g id="Clipped" stroke-width="1" fill="none" fill-rule="evenodd">
                                <mask id="mask-28" fill="white">
                                    <use xlink:href="#path-27"></use>
                                </mask>
                                <g id="Rectangle-path" transform="translate(404.274198, 404.633309) rotate(-50.640000) translate(-404.274198, -404.633309) "></g>
                                <rect id="Rectangle-path" fill="#FCFBFA" fill-rule="nonzero" mask="url(#mask-28)" transform="translate(484.249263, 569.758713) rotate(-43.640000) translate(-484.249263, -569.758713) " x="461.949263" y="544.943713" width="44.6" height="49.63"></rect>
                            </g>
                        </g>
                    </g>
                </g>
                <path d="M82.61,485.33 C82.6763247,463.902962 84.606939,442.522329 88.38,421.43 C101.04,350.87 137.47,292.21 144.65,281.17 C150.65,272.01 155.79,264.84 159.1,260.43 C185.1,225.79 217.45,195.64 255.24,170.83 C287.87,149.4 317.16,136.73 332.9,129.93 C341.04,126.41 349.38,123.06 357.7,119.99 C359.06,119.46 376.96,112.58 391.84,107.87 L392.3,107.72 L392.85,107.55 C393.53,107.34 411.01,102.55 431.03,97.2 L435.53,112.55 C423.53,116.35 411.48,120.55 399.65,125.03 C399.34,125.15 368.33,136.92 341.99,149.96 C292.22,174.61 258.36,201.85 252.08,207.07 C251.21,207.78 242.08,215.4 237.39,219.28 C236.03,220.4 235.22,221.08 234.68,221.51 L234.68,221.51 C211.68,240.6 187.31,273.19 186.28,274.57 C183.98,277.67 180.89,281.81 177.28,286.93 C173.67,292.05 169.64,298.11 165.37,305.08 C130.08,362.62 117.61,429.13 117.48,429.8 C113.03916,454.476027 111.202418,479.550247 112,504.61 L112.21,511.33 L82.61,485.33 Z" id="Shape" fill="#E27051" fill-rule="nonzero"></path>
                <path d="M511.27,181.73 L511.09,185.18 C510.838009,189.513368 507.199562,192.868874 502.86,192.77 C502.05,192.77 501.04,192.68 498.86,192.49 C496.47,192.28 492.86,191.97 488.26,191.68 C480.33,191.17 472.05,190.92 463.68,190.92 C444.902784,190.90074 426.144959,192.126763 407.53,194.59 C359.97908,201.308136 314.593083,218.807176 274.84,245.75 C244.84,266.16 228.71,284.86 228.55,285.05 C195.55,323.94 183.64,364.74 171.04,407.94 C159.136332,448.813539 152.868459,491.120841 152.41,533.69 L152.41,536.94 L150.41,535.94 L150.41,535.94 C148.41,534.86 146.41,533.77 144.41,532.65 C141.47,530.976667 138.56,529.253333 135.68,527.48 C133.83,526.33 131.98,525.17 130.15,523.98 L128.96,523.2 L128.82,523.11 C127.18,522.036667 125.556667,520.946667 123.95,519.84 C123.27,519.37 122.59,518.91 121.95,518.42 C120.82946,478.560374 125.82754,438.764595 136.77,400.42 L137.17,399 C147.4,363.22 162.86,309.16 208.57,261.37 C239.69,228.84 279.08,204.81 325.65,189.94 C351.049727,181.873107 377.310134,176.821738 403.89,174.89 C414.63,174.04 426.75,173.61 439.89,173.61 C457.89,173.61 474.03,174.4 484.38,175.07 C506.29,176.48 506.75,176.96 508.96,179.3 L511.27,181.73 Z" id="Shape" fill="#E27051" fill-rule="nonzero"></path>
                <path d="M503.1,184.74 C503.1,184.94 497.91,184.28 488.72,183.74 C461.240338,182.123262 433.669149,183.127799 406.38,186.74 C287.46,203.3 222.38,279.94 222.38,279.94 C188.26,320.14 176.19,361.53 163.29,405.77 C151.186987,447.343324 144.811549,490.373328 144.34,533.67 C141.4,532.003333 138.49,530.28 135.61,528.5 C133.76,527.35 131.91,526.19 130.08,525 C128.214807,483.703708 133.036996,442.377418 144.36,402.62 C154.64,366.68 169.36,313.88 214.26,266.9 C285.61,192.31 382.8,184.59 404.43,182.9 C448.93,179.26 503.13,184.24 503.1,184.74 Z" id="Shape" fill="#FCFBFA" fill-rule="nonzero"></path>
                <path d="M220.85,530.54 C219.38,540.54 217.53,550.8 215.32,561.03 C212.64,560.37 209.97,559.65 207.32,558.9 C199.64,556.74 192.1,554.266667 184.7,551.48 C182.38,550.613333 180.076667,549.713333 177.79,548.78 L177.79,548.78 C178.51,545.64 179.15,542.78 179.73,539.92 C180.54,536.03 181.24,532.44 181.87,528.92 C186.127769,504.442477 188.35203,479.654507 188.52,454.81 C188.78,429.12 189.06,402.56 181.91,368.52 C169.46,309.21 142,263.36 125.66,236 L124.87,234.7 C108.876368,208.053862 90.2027893,183.11108 69.14,160.26 C66.06,156.92 64.52,155.26 64.72,151.75 L64.92,148.36 L69.74,144.2 L72.74,144.2 C76.14,144.2 77.83,145.91 80.17,148.27 C81.29,149.4 82.9,151.06 84.91,153.17 C88.41,156.83 94.01,162.8 100.91,170.46 C112.56,183.46 129.5,203.04 144.01,222.94 C173.39,263.23 195.57,308.94 209.95,358.68 C223.62,406.04 225.55,441.93 225.82,451.81 C226.38,474.14 223.25,514.35 220.85,530.54 Z" id="Shape" fill="#E27051" fill-rule="nonzero"></path>
                <path d="M212.94,529.36 C211.3,540.54 209.34,550.86 207.31,560.21 C199.63,558.056667 192.09,555.583333 184.69,552.79 C184.876667,552.463333 185.073333,552.13 185.28,551.79 C186,548.71 186.78,545.27 187.55,541.5 C188.3,537.92 189.03,534.19 189.73,530.3 C194.073016,505.384349 196.337479,480.150809 196.5,454.86 C196.78,428.42 196.97,401.36 189.73,366.86 C177,306.16 148.73,259 132.46,231.74 L131.7,230.49 C101.7,180.83 72.33,152.49 72.7,152.15 C72.99,152.15 110.04,189.94 137.49,227.6 C204,318.79 216.84,417 217.79,452 C218.39,474.73 215.15,514.46 212.94,529.36 Z" id="Shape" fill="#FCFBFA" fill-rule="nonzero"></path>
                <path d="M82.61,485.33 C82.6718136,463.902752 84.6024632,442.521728 88.38,421.43 C101.04,350.87 137.48,292.21 144.65,281.17 C150.6,272.01 155.79,264.84 159.1,260.43 C185.1,225.79 217.45,195.64 255.24,170.83 C287.88,149.4 317.17,136.73 332.9,129.93 C341.04,126.41 349.39,123.06 357.71,119.99 C359.07,119.46 376.96,112.58 391.84,107.87 L392.3,107.72 L392.85,107.55 C393.53,107.34 411.01,102.55 431.03,97.2 L435.53,112.55 C423.53,116.35 411.53,120.55 399.65,125.03 C399.34,125.15 368.33,136.92 341.99,149.96 C292.22,174.61 258.36,201.85 252.08,207.07 L237.39,219.28 C236.04,220.4 235.22,221.08 234.68,221.51 L234.68,221.51 C211.68,240.6 187.31,273.19 186.29,274.57 C183.98,277.67 180.89,281.81 177.29,286.93 C173.69,292.05 169.65,298.11 165.38,305.08 C130.1,362.62 117.62,429.13 117.5,429.8 C113.051835,454.478609 111.208386,479.556216 112,504.62 L112.21,511.34 L82.61,485.33 Z" id="Shape" fill="#E27051" fill-rule="nonzero"></path>
                <path d="M433.11,104.93 C423.64,107.93 411.21,112.1 396.82,117.55 C395.42,118.08 364.73,129.78 338.44,142.79 C289.2,167.17 255.44,193.9 246.97,200.91 L229.58,215.37 C205.42,235.42 179.88,269.8 179.88,269.8 C174.88,276.46 167.16,286.96 158.6,300.91 C122.13,360.39 109.67,428.37 109.67,428.37 C105.120748,453.602493 103.240387,479.24379 104.06,504.87 L92.32,496.47 L90.72,495.54 C90.1164183,471.184901 91.9758668,446.831151 96.27,422.85 C109.01,351.85 146.82,292.54 151.37,285.53 C158.1,275.17 163.68,267.67 165.51,265.24 C224.51,186.62 300.68,152.59 336.09,137.24 C345.46,133.19 353.76,129.95 360.55,127.44 C360.55,127.44 379.27,120.21 394.37,115.44 L394.68,115.34 L395.26,115.16 C395.58,115.08 411.41,110.76 433.11,104.93 Z" id="Shape" fill="#FCFBFA" fill-rule="nonzero"></path>
                <path d="M251.74,310.92 C249.59,335.29 244.31,361.73 236.04,389.52 C217.84,450.67 186.51,511.81 168.29,544.73 C165.856667,543.643333 163.443333,542.516667 161.05,541.35 C157.436667,539.61 153.87,537.793333 150.35,535.9 L150.35,535.9 C148.35,534.82 146.35,533.73 144.35,532.61 C141.41,530.943333 138.5,529.22 135.62,527.44 C133.77,526.29 131.92,525.13 130.09,523.94 L128.9,523.16 C152.13,492.48 183.14,444.81 202.13,388.74 C206.32,376.39 216.47,343.91 220.41,309.32 C222.064457,294.442076 222.835809,279.479183 222.72,264.51 C222.72,261.65 222.54,254 221.92,244.73 C219.45,207.86 210.99,167.1 207.47,151.29 C200.73,121 194.43,97.15 191,84.34 C190,80.48 189.18,77.44 188.66,75.34 C188.36,74.14 188.17,73.28 188.04,72.64 C186.8,66.35 190.92,63.37 193.56,62.64 L194.66,62.32 L195.82,62.32 C201.67,62.32 203.4,67.22 204.66,70.79 C205.56,73.34 206.85,77.24 208.6,82.71 C212.67,95.4 219.2,116.46 228.01,145.3 L228.1,145.59 C235.53,170.01 245.37,205.94 250.01,238.47 C251.66,250.03 252.36,259.1 252.63,263.47 C253.473138,279.287518 253.175701,295.145226 251.74,310.92 Z" id="Shape" fill="#E27051" fill-rule="nonzero"></path>
                <path d="M243.78,310.22 C245.200918,294.832229 245.505048,279.361727 244.69,263.93 C244.55,261.61 243.94,252.2 242.14,239.56 C237.08,204.06 225.7,164.97 220.49,147.88 L220.49,147.88 C200.89,83.68 196.28,70.15 195.86,70.27 C195.23,70.45 204.56,101.38 215.29,149.53 C217.45,159.24 227.19,203.53 229.92,244.18 C230.6,254.32 230.72,262.35 230.74,264.39 C230.850336,279.696619 230.058965,294.996448 228.37,310.21 C224.11,347.63 212.98,381.66 209.72,391.29 C188.09,455.15 151.72,506.47 133.8,529.93 C142.139295,535.053437 150.733725,539.749501 159.55,544 C171.08,523.34 208.05,455.53 228.37,387.25 C232.81,372.33 240.87,343.16 243.78,310.22 Z" id="Shape" fill="#FCFBFA" fill-rule="nonzero"></path>
                <path d="M69.12,470.76 C68.84,468.4 68.61,466.05 68.41,463.7 C64.11,413.7 76.31,370.31 87.3,342.7 C100.38,309.9 115.2,289.57 119.37,285.03 C121.078993,282.887217 123.631748,281.588959 126.37,281.47 L128.07,281.47 L129.67,282.17 L132.85,283.6 L134,287 C135.25,290.68 134.05,292.91 130.48,299.53 C119.48,319.99 85.8,382.26 95.11,461.26 C96.8512325,475.878289 99.9581407,490.301307 104.39,504.34 L103.8,504.71 L69.12,470.76 Z" id="Shape" fill="#E27051"></path>
                <path d="M85.22,455.19 C87.0119823,470.308838 90.2262213,485.224916 94.82,499.74 C89.0333333,494.24 83.49,488.513333 78.19,482.56 C76.4149588,473.786495 75.1428839,464.918698 74.38,456 C65.89,357.08 122.67,281.71 124.43,282.49 C126.45,283.42 73.71,357.57 85.22,455.19 Z" id="Shape" fill="#FCFBFA"></path>
            </g>
            <path d="M75.3218936,666.185574 C89.0745543,666.185574 112.074694,668.556723 112.074694,689.304271 C112.074694,711.593066 86.4662911,712.897197 80.6569775,712.897197 C76.0332382,712.897197 71.2909414,711.948738 67.497104,710.288934 L67.497104,742.299437 L75.0847788,752.139703 L75.0847788,753.325277 L44.9711943,753.325277 L44.9711943,752.139703 L52.0846395,742.299437 L52.0846395,677.211414 L44.4969646,667.371148 L44.4969646,666.185574 L75.3218936,666.185574 Z M78.522944,708.036343 C85.2807169,708.036343 96.5436717,705.42808 96.5436717,689.067156 C96.5436717,676.618627 89.4302265,670.453641 74.3734343,670.453641 L67.497104,670.453641 L67.497104,705.546637 C70.2239246,706.969326 73.8992046,708.036343 78.522944,708.036343 Z M167.203894,713.727099 L194.827772,757.119115 L192.456624,757.119115 L174.910126,750.361342 L148.234707,708.984803 L144.322312,708.984803 L144.322312,742.299437 L151.435757,752.139703 L151.435757,753.325277 L121.559287,753.325277 L121.559287,752.139703 L128.909847,742.299437 L128.909847,677.211414 L121.203615,667.252591 L121.203615,666.185574 L148.353264,666.185574 C158.667759,666.185574 185.224621,666.659804 185.224621,687.644467 C185.224621,707.799228 162.343039,708.984803 153.806905,708.984803 L153.214118,708.984803 L167.203894,713.727099 Z M144.322312,670.453641 L144.322312,704.716735 L150.013068,704.716735 C164.121401,704.716735 170.760616,699.025979 170.760616,686.458893 C170.760616,675.55161 162.935827,670.453641 148.353264,670.453641 L144.322312,670.453641 Z M269.044717,742.299437 L275.683932,752.258261 L275.683932,753.325277 L246.993037,753.325277 L246.993037,752.258261 L252.80235,742.299437 L244.740446,722.737463 L218.539256,722.737463 L210.833024,742.299437 L217.472239,752.139703 L217.472239,753.325277 L196.724691,753.325277 L196.724691,752.139703 L204.668038,742.299437 L228.142407,683.613515 L222.807323,670.572199 L237.982673,665 L269.044717,742.299437 Z M220.436175,717.995166 L242.843527,717.995166 L231.343457,690.134173 L220.436175,717.995166 Z M283.508722,753.325277 L313.622306,753.325277 L313.622306,752.139703 L306.271746,742.299437 L306.271746,677.092857 L310.895486,667.371148 L310.895486,666.185574 L286.235543,666.185574 L286.235543,667.371148 L290.859282,677.092857 L290.859282,742.299437 L283.508722,752.139703 L283.508722,753.325277 Z M372.071114,713.727099 L399.694993,757.119115 L397.323844,757.119115 L379.777346,750.361342 L353.101927,708.984803 L349.189532,708.984803 L349.189532,742.299437 L356.302977,752.139703 L356.302977,753.325277 L326.426508,753.325277 L326.426508,752.139703 L333.777068,742.299437 L333.777068,677.211414 L326.070835,667.252591 L326.070835,666.185574 L353.220484,666.185574 C363.53498,666.185574 390.091842,666.659804 390.091842,687.644467 C390.091842,707.799228 367.21026,708.984803 358.674126,708.984803 L358.081339,708.984803 L372.071114,713.727099 Z M349.189532,670.453641 L349.189532,704.716735 L354.880288,704.716735 C368.988621,704.716735 375.627837,699.025979 375.627837,686.458893 C375.627837,675.55161 367.803047,670.453641 353.220484,670.453641 L349.189532,670.453641 Z M407.994012,753.325277 L438.107597,753.325277 L438.107597,752.139703 L430.757037,742.299437 L430.757037,677.092857 L435.380776,667.371148 L435.380776,666.185574 L410.720833,666.185574 L410.720833,667.371148 L415.344572,677.092857 L415.344572,742.299437 L407.994012,752.139703 L407.994012,753.325277 Z M509.479163,734.83032 C504.973981,744.907701 498.216208,748.820095 485.174892,748.820095 L473.911937,748.820095 L473.911937,707.443556 L489.324402,707.443556 L498.927553,716.098248 L500.231684,716.098248 L500.231684,696.773388 L498.808995,696.773388 L489.324402,702.701259 L473.911937,702.701259 L473.911937,670.453641 L495.726502,670.453641 L512.205984,685.273319 L514.458575,685.273319 L510.190508,666.185574 L449.844781,666.185574 L449.844781,667.371148 L458.499473,677.211414 L458.499473,742.417995 L451.7417,752.139703 L451.7417,753.325277 L489.324402,753.325277 C510.901852,753.325277 516.355493,751.665474 521.453462,747.397406 L509.479163,734.83032 Z M47.2237853,899.625133 C56.7083788,899.625133 64.1774962,897.253984 70.8167117,892.86736 L77.5744846,897.965329 L79.5899607,897.965329 L79.5899607,875.083747 L76.0332382,875.083747 C73.8992046,881.722962 67.2599891,892.985917 49.5949336,892.985917 C29.7958446,892.985917 16.7545285,876.032206 16.7545285,850.542361 C16.7545285,830.743272 27.1875814,813.196774 45.0897517,813.196774 C61.8063478,813.196774 72.0022859,829.557698 70.1053672,846.629966 L85.6363891,832.640191 C79.945633,818.294743 64.7702833,809.165822 46.3938833,809.165822 C21.8524975,809.165822 0.749276893,826.830877 0.749276893,854.099084 C0.749276893,874.372402 12.8421337,899.625133 47.2237853,899.625133 Z M159.141989,886.939489 L165.781205,896.898312 L165.781205,897.965329 L137.090309,897.965329 L137.090309,896.898312 L142.899623,886.939489 L134.837718,867.377515 L108.636528,867.377515 L100.930296,886.939489 L107.569512,896.779755 L107.569512,897.965329 L86.8219633,897.965329 L86.8219633,896.779755 L94.7653104,886.939489 L118.239679,828.253566 L112.904596,815.21225 L128.079945,809.640052 L159.141989,886.939489 Z M110.533447,862.635218 L132.940799,862.635218 L121.44073,834.774224 L110.533447,862.635218 Z M235.848639,898.676673 L239.642477,898.676673 L239.642477,821.732908 L246.518807,812.0112 L246.518807,810.825626 L226.719718,810.825626 L226.719718,812.0112 L233.714606,821.732908 L233.714606,872.712599 L232.054802,865.599153 L192.100952,810.825626 L172.064748,810.825626 L172.064748,812.0112 L178.822521,822.207138 L178.822521,886.939489 L171.471961,896.898312 L171.471961,897.965329 L191.508165,897.965329 L191.508165,896.779755 L184.750392,886.939489 L184.750392,828.372124 L235.848639,898.676673 Z M275.446817,897.965329 L305.086172,897.965329 L305.086172,896.898312 L297.972727,886.939489 L297.972727,815.093693 L309.117125,815.093693 L325.359491,832.403076 L326.900737,832.403076 L322.514113,810.825626 L258.018877,810.825626 L253.632252,832.403076 L255.173499,832.403076 L271.415865,815.093693 L282.560263,815.093693 L282.560263,886.939489 L275.446817,896.898312 L275.446817,897.965329 Z M402.066141,886.939489 L408.705357,896.898312 L408.705357,897.965329 L380.014461,897.965329 L380.014461,896.898312 L385.823775,886.939489 L377.76187,867.377515 L351.560681,867.377515 L343.854448,886.939489 L350.493664,896.779755 L350.493664,897.965329 L329.746115,897.965329 L329.746115,896.779755 L337.689463,886.939489 L361.163832,828.253566 L355.828748,815.21225 L371.004097,809.640052 L402.066141,886.939489 Z M353.457599,862.635218 L375.864952,862.635218 L364.364882,834.774224 L353.457599,862.635218 Z M433.83953,897.965329 L463.478884,897.965329 L463.478884,896.898312 L456.365439,886.939489 L456.365439,815.093693 L467.509837,815.093693 L483.752203,832.403076 L485.29345,832.403076 L480.906825,810.825626 L416.411589,810.825626 L412.024964,832.403076 L413.566211,832.403076 L429.808577,815.093693 L440.952975,815.093693 L440.952975,886.939489 L433.83953,896.898312 L433.83953,897.965329 Z M560.458853,886.939489 L567.098069,896.898312 L567.098069,897.965329 L538.407173,897.965329 L538.407173,896.898312 L544.216487,886.939489 L536.154582,867.377515 L509.953393,867.377515 L502.247161,886.939489 L508.886376,896.779755 L508.886376,897.965329 L488.138828,897.965329 L488.138828,896.779755 L496.082175,886.939489 L519.556544,828.253566 L514.22146,815.21225 L529.39681,809.640052 L560.458853,886.939489 Z M511.850312,862.635218 L534.257664,862.635218 L522.757594,834.774224 L511.850312,862.635218 Z" id="Prairie-Cantata-Copy" fill="#272727"></path>
        </g>
   </g>
</svg>